<svg width="113" height="23" viewBox="0 0 113 23" fill="none" xmlns="http://www.w3.org/2000/svg">
<path d="M6.24356 22H3.90355V3.13H0.0335547V0.999999H10.1136V3.13H6.24356V22ZM13.962 0.999999V17.05C13.962 18.94 14.712 20.08 16.422 20.08C18.102 20.08 18.852 18.94 18.852 17.05V0.999999H21.042V16.93C21.042 20.11 19.572 22.24 16.332 22.24C13.122 22.24 11.652 20.11 11.652 16.93V0.999999H13.962ZM25.4136 5.02V22H23.3136V0.999999H26.2836L31.1436 16.18V0.999999H33.2136V22H30.7836L25.4136 5.02ZM37.9589 10.3H43.0889V12.4H37.9589V19.87H44.2589V22H35.6189V0.999999H44.2589V3.13H37.9589V10.3ZM50.8395 0.789999C54.0195 0.789999 55.5195 2.86 55.5195 6.04V6.61H53.2995V5.92C53.2995 4.03 52.5795 2.92 50.8995 2.92C49.2195 2.92 48.4995 4.03 48.4995 5.89C48.4995 10.6 55.5495 11.05 55.5495 16.96C55.5495 20.14 54.0195 22.21 50.8095 22.21C47.5995 22.21 46.0995 20.14 46.0995 16.96V15.76H48.2895V17.08C48.2895 18.97 49.0695 20.08 50.7495 20.08C52.4295 20.08 53.2095 18.97 53.2095 17.08C53.2095 12.4 46.1895 11.95 46.1895 6.04C46.1895 2.8 47.6895 0.789999 50.8395 0.789999ZM60.5916 0.999999H64.7916C67.8516 0.999999 68.8416 2.53 68.8416 5.35V6.7C68.8416 9.04 68.2116 10.45 65.8416 10.81C68.3316 11.17 69.2616 12.88 69.2616 15.31V17.17C69.2616 20.14 68.0016 22 64.8216 22H60.5916V0.999999ZM61.2516 10.54H63.9816C66.8916 10.54 68.1816 9.85 68.1816 6.79V5.38C68.1816 2.92 67.4316 1.63 64.7916 1.63H61.2516V10.54ZM61.2516 21.37H64.8216C67.5816 21.37 68.6016 19.81 68.6016 17.17V15.28C68.6016 12.25 67.1616 11.14 64.2816 11.14H61.2516V21.37ZM79.3172 22H71.6072V0.999999H72.2672V21.37H79.3172V22ZM82.2575 11.05H88.4375V11.65H82.2575V21.37H89.6075V22H81.5975V0.999999H89.6075V1.63H82.2575V11.05ZM92.5693 1.96V22H91.9393V0.999999H92.8693L100.249 20.65V0.999999H100.879V22H100.069L92.5693 1.96ZM103.277 0.999999H107.657C110.867 0.999999 112.217 3.25 112.217 6.25V16.78C112.217 19.75 110.867 22 107.687 22H103.277V0.999999ZM103.937 21.37H107.657C110.477 21.37 111.557 19.42 111.557 16.81V6.22C111.557 3.58 110.447 1.63 107.657 1.63H103.937V21.37Z" fill="white"/>
</svg>
