<svg width="114" height="23" viewBox="0 0 114 23" fill="none" xmlns="http://www.w3.org/2000/svg">
<path d="M0.400156 4V0.999999H10.6002V4H7.15016V22H3.85016V4H0.400156ZM11.9035 0.999999H15.2035V17.2C15.2035 18.7 15.8635 19.24 16.9135 19.24C17.9635 19.24 18.6235 18.7 18.6235 17.2V0.999999H21.7435V16.99C21.7435 20.35 20.0635 22.27 16.8235 22.27C13.5835 22.27 11.9035 20.35 11.9035 16.99V0.999999ZM31.0566 22L27.0066 6.79H26.9466V22H23.9766V0.999999H28.1166L31.4466 13.57H31.5066V0.999999H34.4466V22H31.0566ZM40.1094 4V9.85H44.6394V12.85H40.1094V19H45.8094V22H36.8094V0.999999H45.8094V4H40.1094ZM47.4343 6.04C47.4343 2.68 49.0843 0.76 52.2943 0.76C55.5043 0.76 57.1543 2.68 57.1543 6.04V6.7H54.0343V5.83C54.0343 4.33 53.4343 3.76 52.3843 3.76C51.3343 3.76 50.7343 4.33 50.7343 5.83C50.7343 7.36 51.3943 8.5 53.5543 10.39C56.3143 12.82 57.1843 14.56 57.1843 16.96C57.1843 20.32 55.5043 22.24 52.2643 22.24C49.0243 22.24 47.3443 20.32 47.3443 16.96V15.67H50.4643V17.17C50.4643 18.67 51.1243 19.21 52.1743 19.21C53.2243 19.21 53.8843 18.67 53.8843 17.17C53.8843 15.64 53.2243 14.5 51.0643 12.61C48.3043 10.18 47.4343 8.44 47.4343 6.04ZM62.075 0.999999H66.275C69.335 0.999999 70.325 2.53 70.325 5.35V6.7C70.325 9.04 69.695 10.45 67.325 10.81C69.815 11.17 70.745 12.88 70.745 15.31V17.17C70.745 20.14 69.485 22 66.305 22H62.075V0.999999ZM62.735 10.54H65.465C68.375 10.54 69.665 9.85 69.665 6.79V5.38C69.665 2.92 68.915 1.63 66.275 1.63H62.735V10.54ZM62.735 21.37H66.305C69.065 21.37 70.085 19.81 70.085 17.17V15.28C70.085 12.25 68.645 11.14 65.765 11.14H62.735V21.37ZM80.8006 22H73.0906V0.999999H73.7506V21.37H80.8006V22ZM83.7409 11.05H89.9209V11.65H83.7409V21.37H91.0909V22H83.0809V0.999999H91.0909V1.63H83.7409V11.05ZM94.0527 1.96V22H93.4227V0.999999H94.3527L101.733 20.65V0.999999H102.363V22H101.553L94.0527 1.96ZM104.761 0.999999H109.141C112.351 0.999999 113.701 3.25 113.701 6.25V16.78C113.701 19.75 112.351 22 109.171 22H104.761V0.999999ZM105.421 21.37H109.141C111.961 21.37 113.041 19.42 113.041 16.81V6.22C113.041 3.58 111.931 1.63 109.141 1.63H105.421V21.37Z" fill="black"/>
</svg>
